<svg width="30" height="31" viewBox="0 0 30 31" fill="none" xmlns="http://www.w3.org/2000/svg">
<g id="eye-slash">
<g id="Vector">
<path d="M25.0479 21.5705C28.2399 18.7269 30 15.5001 30 15.5001C30 15.5001 24.375 5.18757 15 5.18757C13.0962 5.18757 11.347 5.61286 9.76813 6.2907L11.2135 7.73608C12.3934 7.31227 13.6583 7.06257 15 7.06257C18.9738 7.06257 22.2731 9.25291 24.6898 11.6696C25.8819 12.8618 26.8085 14.0599 27.4364 14.9609C27.5727 15.1565 27.6945 15.3373 27.8012 15.5001C27.6945 15.6628 27.5727 15.8436 27.4364 16.0393C26.8085 16.9402 25.8819 18.1384 24.6898 19.3305C24.3808 19.6395 24.0573 19.9449 23.7198 20.2424L25.0479 21.5705Z" fill="#2D31A6" fill-opacity="0.2"/>
<path d="M21.1828 17.7053C21.4286 17.0161 21.5625 16.2737 21.5625 15.5001C21.5625 11.8757 18.6244 8.93757 15 8.93757C14.2263 8.93757 13.484 9.07145 12.7947 9.3173L14.3366 10.8592C14.5533 10.8285 14.7748 10.8126 15 10.8126C17.5888 10.8126 19.6875 12.9112 19.6875 15.5001C19.6875 15.7253 19.6716 15.9468 19.6409 16.1635L21.1828 17.7053Z" fill="#2D31A6" fill-opacity="0.2"/>
<path d="M15.6635 20.141L17.2053 21.6828C16.5161 21.9287 15.7737 22.0626 15 22.0626C11.3756 22.0626 8.4375 19.1244 8.4375 15.5001C8.4375 14.7264 8.57138 13.984 8.81724 13.2948L10.3591 14.8366C10.3284 15.0533 10.3125 15.2749 10.3125 15.5001C10.3125 18.0889 12.4112 20.1876 15 20.1876C15.2252 20.1876 15.4467 20.1717 15.6635 20.141Z" fill="#2D31A6" fill-opacity="0.2"/>
<path d="M6.2802 10.7577C5.94273 11.0553 5.61925 11.3606 5.3102 11.6696C4.11808 12.8618 3.19155 14.0599 2.56364 14.9609C2.42726 15.1565 2.30555 15.3373 2.19881 15.5001C2.30555 15.6628 2.42726 15.8436 2.56364 16.0393C3.19155 16.9402 4.11808 18.1384 5.3102 19.3305C7.72693 21.7472 11.0262 23.9376 15 23.9376C16.3418 23.9376 17.6066 23.6879 18.7865 23.264L20.2319 24.7094C18.6531 25.3873 16.9039 25.8126 15 25.8126C5.625 25.8126 0 15.5001 0 15.5001C0 15.5001 1.76009 12.2732 4.95209 9.42961L6.2802 10.7577Z" fill="#2D31A6" fill-opacity="0.2"/>
<path d="M25.5871 27.413L3.08709 4.91298L4.41291 3.58716L26.9129 26.0872L25.5871 27.413Z" fill="#2D31A6" fill-opacity="0.2"/>
</g>
</g>
</svg>
