<svg width="30" height="31" viewBox="0 0 30 31" fill="none" xmlns="http://www.w3.org/2000/svg">
<path d="M2.54453 7.0217C1.75563 14.4622 4.17503 20.012 7.08693 23.7301C8.59224 25.6521 10.2283 27.0846 11.6202 28.0426C12.3156 28.5213 12.9602 28.8885 13.5075 29.1399C14.0133 29.3723 14.5543 29.5625 15.0005 29.5625C15.4466 29.5625 15.9877 29.3723 16.4934 29.1399C17.0407 28.8885 17.6853 28.5213 18.3807 28.0426C19.2543 27.4414 20.224 26.6532 21.1973 25.6744L19.8714 24.3486C18.9819 25.2437 18.1007 25.9592 17.3177 26.4981C16.6945 26.9271 16.1435 27.2373 15.7106 27.4362C15.4938 27.5358 15.3166 27.6029 15.1819 27.6436C15.071 27.6771 15.014 27.685 15.0005 27.6869C14.9869 27.685 14.9299 27.6771 14.819 27.6436C14.6844 27.6029 14.5071 27.5358 14.2903 27.4362C13.8574 27.2373 13.3065 26.9271 12.6832 26.4981C11.4378 25.6409 9.94383 24.3369 8.56309 22.574C6.11635 19.4498 4.02208 14.8841 4.29228 8.76945L2.54453 7.0217Z" fill="#2D31A6" fill-opacity="0.2"/>
<path d="M23.2681 19.7904C25.0898 16.4433 26.258 12.0103 25.4952 6.42333C25.4527 6.11182 25.2262 5.83921 24.9037 5.73649C23.7314 5.36313 21.7507 4.75136 19.7948 4.2339C17.795 3.70482 15.9565 3.3125 15.0005 3.3125C14.0444 3.3125 12.2059 3.70482 10.2061 4.2339C9.54756 4.40814 8.88617 4.59307 8.25377 4.77599L6.74362 3.26583C7.66521 2.99032 8.69786 2.69343 9.72655 2.42126C11.6819 1.90392 13.7587 1.4375 15.0005 1.4375C16.2422 1.4375 18.319 1.90392 20.2744 2.42126C22.2736 2.95022 24.2879 3.57255 25.4727 3.94991C26.4615 4.26483 27.2094 5.11764 27.353 6.1697C28.2118 12.4602 26.7926 17.4481 24.6452 21.1674L23.2681 19.7904Z" fill="#2D31A6" fill-opacity="0.2"/>
<path fill-rule="evenodd" clip-rule="evenodd" d="M25.5869 27.413L1.21191 3.03798L2.53774 1.71216L26.9127 26.0872L25.5869 27.413Z" fill="#2D31A6" fill-opacity="0.2"/>
</svg>
