<svg width="51" height="51" viewBox="0 0 51 51" fill="none" xmlns="http://www.w3.org/2000/svg">
<path id="Star 1" d="M21.7568 2.73268C23.4644 0.392537 26.9559 0.392536 28.6635 2.73268V2.73268C29.8518 4.36117 32.0162 4.9382 33.8575 4.11737L34.0275 4.04156C36.6283 2.88214 39.6004 4.61227 39.8765 7.44635V7.44635C40.0705 9.43746 41.651 11.0104 43.643 11.1948L43.8442 11.2134C46.6649 11.4745 48.3715 14.4557 47.1684 17.0203V17.0203C46.3213 18.826 46.9058 20.9828 48.5448 22.1193V22.1193C50.9004 23.7527 50.9004 27.2473 48.5448 28.8807V28.8807C46.9058 30.0172 46.3213 32.174 47.1684 33.9797V33.9797C48.3715 36.5443 46.6649 39.5255 43.8442 39.7866L43.643 39.8052C41.651 39.9896 40.0705 41.5625 39.8765 43.5536V43.5536C39.6004 46.3877 36.6283 48.1179 34.0275 46.9584L33.8575 46.8826C32.0162 46.0618 29.8518 46.6388 28.6635 48.2673V48.2673C26.9559 50.6075 23.4644 50.6075 21.7568 48.2673V48.2673C20.5685 46.6388 18.4041 46.0618 16.5628 46.8826L16.3928 46.9584C13.792 48.1179 10.8198 46.3877 10.5438 43.5536V43.5536C10.3498 41.5625 8.76933 39.9896 6.77732 39.8052L6.57607 39.7866C3.75538 39.5255 2.04876 36.5443 3.25186 33.9797V33.9797C4.09897 32.174 3.51452 30.0172 1.87546 28.8807V28.8807C-0.480158 27.2473 -0.480158 23.7527 1.87546 22.1193V22.1193C3.51452 20.9828 4.09897 18.826 3.25186 17.0203V17.0203C2.04876 14.4557 3.75538 11.4745 6.57607 11.2134L6.77732 11.1948C8.76933 11.0104 10.3498 9.43746 10.5438 7.44636V7.44636C10.8198 4.61228 13.792 2.88214 16.3928 4.04156L16.5628 4.11737C18.4041 4.9382 20.5685 4.36117 21.7568 2.73268V2.73268Z" fill="#E2B030"/>
</svg>
