<svg width="28" height="28" viewBox="0 0 28 28" fill="none" xmlns="http://www.w3.org/2000/svg">
<rect width="28" height="28" rx="7" fill="#89008C"/>
<path d="M9.96509 8.202C9.77924 8.17495 9.58973 8.21236 9.42809 8.308H9.41409C9.03909 8.528 8.70109 8.805 8.41309 9.131C8.17309 9.408 8.04309 9.688 8.00909 9.958C7.98909 10.118 8.00309 10.28 8.05009 10.433L8.06809 10.443C8.33809 11.236 8.69009 11.999 9.12009 12.717C9.67454 13.7255 10.3568 14.6582 11.1501 15.492L11.1741 15.526L11.2121 15.554L11.2351 15.581L11.2631 15.605C12.0998 16.4006 13.0347 17.0862 14.0451 17.645C15.2001 18.274 15.9011 18.571 16.3221 18.695V18.701C16.4451 18.739 16.5571 18.756 16.6701 18.756C17.0286 18.7295 17.368 18.5838 17.6341 18.342C17.9591 18.054 18.2341 17.715 18.4481 17.338V17.331C18.6491 16.951 18.5811 16.593 18.2911 16.35C17.7086 15.841 17.0787 15.389 16.4101 15C15.9621 14.757 15.5071 14.904 15.3231 15.15L14.9301 15.646C14.7281 15.892 14.3621 15.858 14.3621 15.858L14.3521 15.864C11.6211 15.167 10.8921 12.402 10.8921 12.402C10.8921 12.402 10.8581 12.026 11.1111 11.834L11.6031 11.438C11.8391 11.246 12.0031 10.792 11.7501 10.344C11.3637 9.67476 10.9125 9.04508 10.4031 8.464C10.292 8.32725 10.1362 8.23411 9.96309 8.201L9.96509 8.202ZM14.5801 7C14.4475 7 14.3203 7.05268 14.2265 7.14645C14.1328 7.24021 14.0801 7.36739 14.0801 7.5C14.0801 7.63261 14.1328 7.75979 14.2265 7.85355C14.3203 7.94732 14.4475 8 14.5801 8C15.8441 8 16.8941 8.413 17.7251 9.205C18.1521 9.638 18.4851 10.151 18.7031 10.713C18.9221 11.276 19.0221 11.877 18.9961 12.479C18.9905 12.6116 19.0379 12.741 19.1277 12.8387C19.2175 12.9364 19.3425 12.9944 19.4751 13C19.6077 13.0056 19.7371 12.9582 19.8348 12.8684C19.9325 12.7786 19.9905 12.6536 19.9961 12.521C20.0271 11.7805 19.9042 11.0416 19.6351 10.351C19.3648 9.65714 18.955 9.02612 18.4311 8.497L18.4211 8.487C17.3901 7.502 16.0861 7 14.5801 7Z" fill="white"/>
<path d="M14.5449 8.64407C14.4123 8.64407 14.2851 8.69674 14.1914 8.79051C14.0976 8.88428 14.0449 9.01146 14.0449 9.14407C14.0449 9.27667 14.0976 9.40385 14.1914 9.49762C14.2851 9.59139 14.4123 9.64407 14.5449 9.64407H14.5619C15.4739 9.70907 16.1379 10.0131 16.6029 10.5121C17.0799 11.0261 17.3269 11.6651 17.3079 12.4551C17.3049 12.5877 17.3546 12.7161 17.4462 12.812C17.5378 12.9079 17.6638 12.9635 17.7964 12.9666C17.929 12.9696 18.0574 12.9199 18.1533 12.8283C18.2493 12.7366 18.3049 12.6107 18.3079 12.4781C18.3319 11.4411 17.9979 10.5461 17.3359 9.83207V9.83007C16.6589 9.10407 15.7299 8.72007 14.6119 8.64507L14.5949 8.64307L14.5449 8.64407Z" fill="white"/>
<path d="M14.5264 10.3188C14.4595 10.3129 14.392 10.3206 14.3281 10.3413C14.2642 10.362 14.2052 10.3954 14.1545 10.4395C14.1038 10.4835 14.0625 10.5374 14.033 10.5977C14.0036 10.6581 13.9866 10.7238 13.9831 10.7909C13.9796 10.858 13.9897 10.9251 14.0127 10.9882C14.0357 11.0513 14.0712 11.1091 14.117 11.1582C14.1629 11.2073 14.2182 11.2466 14.2795 11.2739C14.3409 11.3011 14.4072 11.3157 14.4744 11.3168C14.8924 11.3388 15.1594 11.4648 15.3274 11.6338C15.4964 11.8038 15.6224 12.0768 15.6454 12.5038C15.6466 12.5709 15.6614 12.6371 15.6887 12.6984C15.7161 12.7597 15.7555 12.8148 15.8046 12.8605C15.8537 12.9062 15.9116 12.9416 15.9747 12.9645C16.0377 12.9874 16.1048 12.9974 16.1718 12.9938C16.2388 12.9903 16.3044 12.9733 16.3647 12.9438C16.425 12.9143 16.4788 12.8731 16.5228 12.8224C16.5668 12.7717 16.6002 12.7127 16.6209 12.6489C16.6416 12.585 16.6492 12.5177 16.6434 12.4508C16.6114 11.8508 16.4234 11.3208 16.0384 10.9308C15.6514 10.5408 15.1244 10.3508 14.5264 10.3188Z" fill="white"/>
<path fill-rule="evenodd" clip-rule="evenodd" d="M9.06705 4.38406C12.2491 3.67276 15.549 3.67276 18.7311 4.38406L19.0701 4.45906C20.0003 4.66701 20.8546 5.12879 21.5381 5.79308C22.2217 6.45738 22.7076 7.29818 22.9421 8.22206C23.7498 11.4049 23.7498 14.7392 22.9421 17.9221C22.7076 18.8459 22.2217 19.6867 21.5381 20.351C20.8546 21.0153 20.0003 21.4771 19.0701 21.6851L18.7301 21.7601C16.7371 22.2057 14.692 22.3737 12.6531 22.2591L10.0001 24.6331C9.90003 24.7226 9.77781 24.7837 9.64614 24.8099C9.51447 24.8361 9.37818 24.8265 9.2515 24.782C9.12482 24.7376 9.01239 24.6599 8.92594 24.5572C8.8395 24.4545 8.78221 24.3305 8.76005 24.1981L8.32105 21.5761C7.47924 21.3141 6.71866 20.8407 6.11202 20.2009C5.50538 19.5612 5.07295 18.7766 4.85605 17.9221C4.04831 14.7392 4.04831 11.4049 4.85605 8.22206C5.09047 7.29818 5.57645 6.45738 6.25999 5.79308C6.94353 5.12879 7.79786 4.66701 8.72805 4.45906L9.06705 4.38406ZM18.4041 5.84706C15.4373 5.18386 12.3608 5.18386 9.39405 5.84706L9.05405 5.92306C8.39477 6.07071 7.78932 6.39821 7.30493 6.86919C6.82054 7.34016 6.47616 7.93618 6.31005 8.59106C5.56377 11.5318 5.56377 14.6123 6.31005 17.5531C6.47624 18.2081 6.82077 18.8042 7.30535 19.2752C7.78993 19.7461 8.39559 20.0736 9.05505 20.2211L9.14505 20.2411C9.29065 20.2736 9.42322 20.3489 9.52583 20.4572C9.62843 20.5655 9.6964 20.7019 9.72105 20.8491L10.0151 22.6071L11.8871 20.9321C11.9618 20.865 12.0493 20.8136 12.1443 20.7809C12.2393 20.7483 12.3399 20.7351 12.4401 20.7421C14.4391 20.8839 16.4482 20.734 18.4041 20.2971L18.7431 20.2211C19.4025 20.0736 20.0082 19.7461 20.4928 19.2752C20.9773 18.8042 21.3219 18.2081 21.4881 17.5531C22.2341 14.6131 22.2341 11.5321 21.4881 8.59106C21.3219 7.93606 20.9773 7.33995 20.4928 6.86896C20.0082 6.39798 19.4025 6.07055 18.7431 5.92306L18.4041 5.84706Z" fill="white"/>
</svg>
