<svg width="32" height="32" viewBox="0 0 32 32" fill="none" xmlns="http://www.w3.org/2000/svg">
<path d="M10.88 27.5199C11.9404 27.5199 12.8 26.6603 12.8 25.5999C12.8 24.5395 11.9404 23.6799 10.88 23.6799C9.8196 23.6799 8.95999 24.5395 8.95999 25.5999C8.95999 26.6603 9.8196 27.5199 10.88 27.5199Z" stroke="#0069F4" stroke-width="2" stroke-linecap="round" stroke-linejoin="round"/>
<path d="M24.96 27.5199C26.0204 27.5199 26.88 26.6603 26.88 25.5999C26.88 24.5395 26.0204 23.6799 24.96 23.6799C23.8996 23.6799 23.04 24.5395 23.04 25.5999C23.04 26.6603 23.8996 27.5199 24.96 27.5199Z" stroke="#0069F4" stroke-width="2" stroke-linecap="round" stroke-linejoin="round"/>
<path d="M3 5H7L10 22H26" stroke="#0069F4" stroke-width="2" stroke-linecap="round" stroke-linejoin="round"/>
<path d="M10 18H25.59C25.7056 18.0001 25.8177 17.9601 25.9072 17.8868C25.9966 17.8135 26.0579 17.7115 26.0806 17.5981L27.8806 8.59813C27.8951 8.52555 27.8934 8.45066 27.8754 8.37886C27.8575 8.30705 27.8239 8.24012 27.7769 8.1829C27.73 8.12567 27.6709 8.07959 27.604 8.04796C27.5371 8.01633 27.464 7.99995 27.39 8H8" stroke="#0069F4" stroke-width="2" stroke-linecap="round" stroke-linejoin="round"/>
</svg>
