<svg width="32" height="32" viewBox="0 0 32 32" fill="none" xmlns="http://www.w3.org/2000/svg">
<g id="ion:cart-outline">
<path id="Vector" d="M10.88 27.5201C11.9403 27.5201 12.8 26.6604 12.8 25.6001C12.8 24.5397 11.9403 23.6801 10.88 23.6801C9.81957 23.6801 8.95996 24.5397 8.95996 25.6001C8.95996 26.6604 9.81957 27.5201 10.88 27.5201Z" stroke="#FAFCFF" stroke-width="2" stroke-linecap="round" stroke-linejoin="round"/>
<path id="Vector_2" d="M24.96 27.5201C26.0204 27.5201 26.88 26.6604 26.88 25.6001C26.88 24.5397 26.0204 23.6801 24.96 23.6801C23.8997 23.6801 23.04 24.5397 23.04 25.6001C23.04 26.6604 23.8997 27.5201 24.96 27.5201Z" stroke="#FAFCFF" stroke-width="2" stroke-linecap="round" stroke-linejoin="round"/>
<path id="Vector_3" d="M3 5H7L10 22H26" stroke="#FAFCFF" stroke-width="2" stroke-linecap="round" stroke-linejoin="round"/>
<path id="Vector_4" d="M10 18H25.59C25.7056 18.0001 25.8177 17.9601 25.9072 17.8868C25.9966 17.8135 26.0579 17.7115 26.0806 17.5981L27.8806 8.59813C27.8951 8.52555 27.8934 8.45066 27.8754 8.37886C27.8575 8.30705 27.8239 8.24012 27.7769 8.1829C27.73 8.12567 27.6709 8.07959 27.604 8.04796C27.5371 8.01633 27.464 7.99995 27.39 8H8" stroke="#FAFCFF" stroke-width="2" stroke-linecap="round" stroke-linejoin="round"/>
</g>
</svg>
