<svg width="33" height="33" viewBox="0 0 33 33" fill="none" xmlns="http://www.w3.org/2000/svg">
<path d="M3.67962 4.43149L6.404 1.70711C6.79453 1.31658 7.42769 1.31658 7.81822 1.70711L13.5151 7.404C13.9056 7.79453 13.9056 8.42769 13.5151 8.81822L11.1498 11.1836C10.8613 11.4721 10.7897 11.9128 10.9722 12.2777C13.0818 16.497 16.503 19.9182 20.7223 22.0278C21.0872 22.2103 21.5279 22.1387 21.8164 21.8502L24.1818 19.4849C24.5723 19.0944 25.2055 19.0944 25.596 19.4849L31.2929 25.1818C31.6834 25.5723 31.6834 26.2055 31.2929 26.596L28.5685 29.3204C26.4572 31.4317 23.1146 31.6693 20.7259 29.8777L13.2952 24.3048C11.5517 22.9971 10.0029 21.4483 8.69524 19.7048L3.12226 12.2741C1.33072 9.88541 1.56827 6.54284 3.67962 4.43149Z" stroke="#0069F4" stroke-width="2"/>
</svg>
