<svg width="28" height="28" viewBox="0 0 28 28" fill="none" xmlns="http://www.w3.org/2000/svg">
<g clip-path="url(#clip0_341_4471)">
<path d="M14 0C10.2878 0 6.72437 1.47591 4.10156 4.10047C1.47604 6.72607 0.000727278 10.2869 0 14C0 17.7115 1.47656 21.275 4.10156 23.8995C6.72437 26.5241 10.2878 28 14 28C17.7122 28 21.2756 26.5241 23.8984 23.8995C26.5234 21.275 28 17.7115 28 14C28 10.2885 26.5234 6.72503 23.8984 4.10047C21.2756 1.47591 17.7122 0 14 0Z" fill="url(#paint0_linear_341_4471)"/>
<path d="M6.33723 13.8521C10.4191 12.0741 13.1404 10.9018 14.501 10.3354C18.3904 8.71821 19.1975 8.43733 19.7247 8.42782C19.8407 8.42596 20.0988 8.45461 20.2672 8.59079C20.4072 8.70563 20.4466 8.86094 20.4663 8.96999C20.4838 9.07893 20.5079 9.32721 20.4882 9.52102C20.2782 11.7348 19.366 17.1068 18.9022 19.5864C18.7075 20.6355 18.3204 20.9872 17.9463 21.0216C17.1325 21.0964 16.5157 20.4843 15.7282 19.9683C14.4966 19.1605 13.801 18.6578 12.6044 17.8696C11.2219 16.9587 12.1188 16.458 12.9063 15.6399C13.1119 15.4257 16.695 12.1675 16.7629 11.8719C16.7716 11.835 16.7804 11.6971 16.6972 11.6245C16.6163 11.5517 16.496 11.5766 16.4085 11.5963C16.2838 11.6243 14.3172 12.9254 10.5022 15.4995C9.94442 15.8831 9.43911 16.0702 8.98411 16.0603C8.48536 16.0496 7.52286 15.7777 6.80755 15.5454C5.93255 15.2604 5.23473 15.1096 5.29598 14.6256C5.32661 14.3736 5.67442 14.1156 6.33723 13.8521Z" fill="white"/>
</g>
<defs>
<linearGradient id="paint0_linear_341_4471" x1="1400" y1="0" x2="1400" y2="2800" gradientUnits="userSpaceOnUse">
<stop stop-color="#2AABEE"/>
<stop offset="1" stop-color="#229ED9"/>
</linearGradient>
<clipPath id="clip0_341_4471">
<rect width="28" height="28" fill="white"/>
</clipPath>
</defs>
</svg>
